Coordinates
version=1
nRows=32
nColumns=22
inDegrees=yes

Units are S.I. units (second, meters, Newtons, ...)
If the header above contains a line with 'inDegrees', this indicates whether rotational values are in degrees (yes) or radians (no).

endheader
time	pelvis_tilt	pelvis_list	pelvis_rotation	pelvis_tx	pelvis_ty	pelvis_tz	hip_flexion_r	hip_adduction_r	hip_rotation_r	knee_angle_r	ankle_angle_r	subtalar_angle_r	hip_flexion_l	hip_adduction_l	hip_rotation_l	knee_angle_l	ankle_angle_l	subtalar_angle_l	lumbar_extension	lumbar_bending	lumbar_rotation
      1.37000000	    -10.85607249	      0.43605073	     -3.59053261	     -0.60506255	      0.97205110	      0.06215867	     40.17152952	     -1.18688945	     -0.00024376	    -27.98164242	     13.65902396	      4.21775711	     12.92821877	      5.46788441	      0.13237319	    -17.25251871	     22.02398676	     -5.79340383	     -0.92628683	     -0.11156585	     -0.89991461
      1.38000000	    -10.71567048	      0.46207713	     -3.51549480	     -0.60155105	      0.97175078	      0.06226879	     40.33450795	     -1.22825370	     -0.13210788	    -27.35943749	     13.63405875	      4.44738748	     12.59019004	      5.52752970	      0.18683455	    -17.32032581	     22.23070102	     -5.82569484	     -1.12389617	     -0.12833790	     -1.02487873
      1.39000000	    -10.56442920	      0.49193142	     -3.43483481	     -0.59789287	      0.97144865	      0.06238481	     40.47811583	     -1.28784405	     -0.32058945	    -26.76953131	     13.64837954	      4.58117533	     12.22093642	      5.59146557	      0.23701699	    -17.36643973	     22.42386789	     -5.86073547	     -1.32474646	     -0.14598187	     -1.16045610
      1.40000000	    -10.40873326	      0.53066867	     -3.35447124	     -0.59410055	      0.97113438	      0.06251431	     40.61051083	     -1.36278812	     -0.53927418	    -26.21600371	     13.67628695	      4.61180306	     11.82800805	      5.66343486	      0.28227179	    -17.39038368	     22.60119041	     -5.89813004	     -1.52158901	     -0.16783563	     -1.30011230
      1.41000000	    -10.26977116	      0.58689241	     -3.26180539	     -0.59023452	      0.97075029	      0.06264781	     40.76504220	     -1.46461829	     -0.77686820	    -25.71724985	     13.70065595	      4.57267905	     11.45877680	      5.75561591	      0.35332575	    -17.43570427	     22.81217775	     -5.92576252	     -1.69620768	     -0.21110663	     -1.43275176
      1.42000000	    -10.11998884	      0.62864277	     -3.16351908	     -0.58621839	      0.97038757	      0.06281135	     40.88486688	     -1.55829514	     -1.02779066	    -25.24178426	     13.71489656	      4.48840455	     11.05316626	      5.82868268	      0.41981606	    -17.45126658	     22.99155067	     -5.95549641	     -1.87360689	     -0.23454364	     -1.59505621
      1.43000000	     -9.99066874	      0.67891341	     -3.05934821	     -0.58212915	      0.96996388	      0.06300402	     41.02235347	     -1.66026080	     -1.26113689	    -24.81465144	     13.70603633	      4.41729304	     10.67706764	      5.90815325	      0.49928510	    -17.49160278	     23.19497059	     -5.97493914	     -2.02300406	     -0.26810060	     -1.75262046
      1.44000000	     -9.88213009	      0.72922644	     -2.94437569	     -0.57796834	      0.96948598	      0.06322898	     41.16973731	     -1.76313680	     -1.47335003	    -24.42373862	     13.67056280	      4.38183944	     10.33098600	      5.98462383	      0.59530123	    -17.55820988	     23.40851817	     -5.98261781	     -2.14667428	     -0.30418882	     -1.90197849
      1.45000000	     -9.77285445	      0.75912200	     -2.81966868	     -0.57366811	      0.96901859	      0.06347801	     41.28650074	     -1.84902203	     -1.67216163	    -24.05225415	     13.62192129	      4.35844174	      9.96874132	      6.03493147	      0.68463501	    -17.61203430	     23.60257064	     -5.98291457	     -2.25954875	     -0.30917350	     -2.08990672
      1.46000000	     -9.68942354	      0.79903385	     -2.68576833	     -0.56931565	      0.96847742	      0.06375836	     41.42270285	     -1.94225584	     -1.83889298	    -23.72031350	     13.55052246	      4.35954581	      9.65047122	      6.09338986	      0.79465540	    -17.70668767	     23.82347932	     -5.97367802	     -2.34290915	     -0.33043283	     -2.24906767
      1.47000000	     -9.61028630	      0.82169421	     -2.53233613	     -0.56484109	      0.96793135	      0.06405053	     41.53282071	     -2.02924201	     -2.01400381	    -23.40398744	     13.48611285	      4.35953304	      9.32900675	      6.13072472	      0.91648561	    -17.80226872	     24.03335571	     -5.95310041	     -2.41585307	     -0.32841885	     -2.44139748
      1.48000000	     -9.54033531	      0.83896565	     -2.36636924	     -0.56025518	      0.96736172	      0.06436958	     41.62731394	     -2.11511705	     -2.19297137	    -23.10640274	     13.42981441	      4.35226329	      9.01498391	      6.15808868	      1.04954731	    -17.90837627	     24.23965963	     -5.92163017	     -2.47244680	     -0.31929920	     -2.64032637
      1.49000000	     -9.48637829	      0.86256421	     -2.18852241	     -0.55558611	      0.96674373	      0.06471541	     41.71930807	     -2.20910650	     -2.36932996	    -22.83247360	     13.37627571	      4.34364904	      8.72290203	      6.18988442	      1.20243919	    -18.03572769	     24.45607568	     -5.88645047	     -2.50916884	     -0.32169736	     -2.82346758
      1.50000000	     -9.43913399	      0.88157991	     -1.99355150	     -0.55079551	      0.96611022	      0.06507344	     41.78751788	     -2.30639836	     -2.56140438	    -22.57031922	     13.33479606	      4.33096280	      8.42949275	      6.21322777	      1.36509679	    -18.16241913	     24.66228983	     -5.84108421	     -2.53265112	     -0.31551111	     -3.02726795
      1.51000000	     -9.39657107	      0.90166440	     -1.79054964	     -0.54589510	      0.96545801	      0.06547223	     41.83414261	     -2.40477364	     -2.76358418	    -22.32612722	     13.30330389	      4.32047364	      8.13522906	      6.23360650	      1.54018800	    -18.29351034	     24.86012288	     -5.78797811	     -2.54862455	     -0.31502197	     -3.22453750
      1.52000000	     -9.35666664	      0.92651883	     -1.58409668	     -0.54087670	      0.96478997	      0.06591137	     41.85704447	     -2.50347257	     -2.95985530	    -22.10152379	     13.28051113	      4.31694933	      7.83316256	      6.25377484	      1.70981159	    -18.41981212	     25.04960512	     -5.72911101	     -2.55686018	     -0.32119671	     -3.41627134
      1.53000000	     -9.31693088	      0.95564159	     -1.37992254	     -0.53573501	      0.96411197	      0.06640243	     41.85399688	     -2.59887384	     -3.14856389	    -21.90065769	     13.27126832	      4.32154747	      7.51936773	      6.27228874	      1.87241321	    -18.54001569	     25.22614844	     -5.66296880	     -2.56072236	     -0.33371638	     -3.59786131
      1.54000000	     -9.27830702	      0.99189914	     -1.17787845	     -0.53046559	      0.96342597	      0.06694971	     41.82560968	     -2.69221709	     -3.31966393	    -21.72766677	     13.27789272	      4.33197660	      7.19331156	      6.29083299	      2.01968916	    -18.65045666	     25.39098855	     -5.58957467	     -2.55946109	     -0.35624806	     -3.76437345
      1.55000000	     -9.23180251	      1.02899535	     -0.98202431	     -0.52505373	      0.96275541	      0.06755909	     41.75996113	     -2.77807115	     -3.48917751	    -21.58320149	     13.30986078	      4.34343330	      6.84128566	      6.30193795	      2.15525660	    -18.74547165	     25.52675510	     -5.49288575	     -2.56118141	     -0.38189161	     -3.92408125
      1.56000000	     -9.19246882	      1.08264082	     -0.78998140	     -0.51952668	      0.96206239	      0.06821598	     41.68256522	     -2.87010892	     -3.62911808	    -21.48575408	     13.36112981	      4.34643802	      6.48945027	      6.32371514	      2.28076219	    -18.84020047	     25.65882042	     -5.39266621	     -2.55195236	     -0.42822745	     -4.05342827
      1.57000000	     -9.15568675	      1.14537439	     -0.59715365	     -0.51386234	      0.96136726	      0.06891477	     41.58257754	     -2.96704377	     -3.76081995	    -21.43347686	     13.43311778	      4.33629486	      6.12777203	      6.34819178	      2.40049773	    -18.92655224	     25.77137949	     -5.27636771	     -2.53413613	     -0.48448663	     -4.17735921
      1.58000000	     -9.09403051	      1.20075119	     -0.41185341	     -0.50803890	      0.96072977	      0.06966897	     41.42207707	     -3.04812677	     -3.88366891	    -21.41693401	     13.49525797	      4.29966683	      5.72381139	      6.35382128	      2.49545956	    -19.00001137	     25.86171834	     -5.07858970	     -2.53993840	     -0.52986201	     -4.29166432
      1.59000000	     -9.09264495	      1.28535302	     -0.20016697	     -0.50213276	      0.95997883	      0.07040651	     41.31361322	     -3.16961487	     -4.00630322	    -21.47283707	     13.60194678	      4.25488091	      5.39387795	      6.39198643	      2.64088406	    -19.10379960	     25.92700319	     -4.96028150	     -2.47136583	     -0.60937464	     -4.40432800
      1.60000000	     -9.08807939	      1.36179436	      0.02487845	     -0.49609605	      0.95925195	      0.07115980	     41.16641629	     -3.28887352	     -4.13820680	    -21.56531696	     13.67625337	      4.18242835	      5.05682008	      6.41505289	      2.79421047	    -19.21553844	     25.97778909	     -4.79000897	     -2.40299165	     -0.67576169	     -4.52939872
      1.61000000	     -9.10288926	      1.43813995	      0.26071404	     -0.48996924	      0.95849303	      0.07192954	     41.01997424	     -3.41008759	     -4.26574977	    -21.71421450	     13.71062357	      4.09198520	      4.75171392	      6.43400766	      2.95722706	    -19.36128852	     26.02589499	     -4.62186594	     -2.31287007	     -0.73957918	     -4.64856618
      1.62000000	     -9.13219915	      1.48429147	      0.50290999	     -0.48368282	      0.95775244	      0.07276664	     40.83961018	     -3.49912515	     -4.41698004	    -21.86601599	     13.65982338	      3.85064153	      4.45857147	      6.40618834	      3.09204327	    -19.51580376	     26.04902836	     -4.29112175	     -2.19511510	     -0.77178685	     -4.77427206
      1.63000000	     -9.19821727	      1.53622619	      0.75988012	     -0.47734141	      0.95696414	      0.07360429	     40.68651062	     -3.59732116	     -4.55037955	    -22.06740397	     13.53327337	      3.61088169	      4.22325833	      6.38724853	      3.27437836	    -19.71502478	     26.05228943	     -4.05892300	     -2.03875906	     -0.80807113	     -4.88531594
      1.64000000	     -9.28534545	      1.56658633	      1.00698627	     -0.47086824	      0.95619750	      0.07453417	     40.53136365	     -3.65929311	     -4.66946935	    -22.28318641	     13.24608131	      3.26613130	      4.00670367	      6.33481130	      3.44369062	    -19.91888743	     26.03525662	     -3.78824951	     -1.85214464	     -0.82289916	     -4.99250387
      1.65000000	     -9.39211441	      1.55848995	      1.23660604	     -0.46427690	      0.95548707	      0.07555411	     40.37021582	     -3.66336004	     -4.74971024	    -22.48801784	     12.77383533	      2.90548376	      3.81098970	      6.23683527	      3.63509093	    -20.13382431	     25.96227219	     -3.53201920	     -1.63842756	     -0.79230588	     -5.07351561
      1.66000000	     -9.49992107	      1.53827234	      1.40783011	     -0.45755904	      0.95482492	      0.07675237	     40.23645469	     -3.61614976	     -4.82436714	    -22.74488656	     12.09466328	      2.30029246	      3.62498910	      6.10755683	      3.72430714	    -20.37238704	     25.91033505	     -3.17011129	     -1.42082992	     -0.75620115	     -5.06394701
      1.67000000	     -9.60984289	      1.47649894	      1.53624169	     -0.45072171	      0.95427692	      0.07808488	     40.11060219	     -3.49962012	     -4.87442383	    -23.00766554	     11.22481144	      1.72275060	      3.43962555	      5.92847289	      3.82005207	    -20.61677235	     25.80971617	     -2.81526694	     -1.19941150	     -0.67146832	     -5.01639139
      1.68000000	     -9.71166925	      1.38966461	      1.60417495	     -0.44376320	      0.95385225	      0.07957802	     40.00586584	     -3.32025883	     -4.89912937	    -23.30671002	     10.20875012	      1.10992078	      3.24613437	      5.71579028	      3.89083122	    -20.87100676	     25.67150855	     -2.41268225	     -0.98624678	     -0.55750844	     -4.91331767
